# xmcd
#
# Track frame offsets:
#	150
#	16765
#	32572
#	48740
#	66349
#	83063
#	99441
#	116032
#	133921
#	153535
#	171052
#	185901
#	203330
#	218707
#	236249
#	253372
#	269898
#	285261
#	302525
#
# Disc length: 4225 seconds
#
# Revision: 0
# Processed by: cddbd v1.5.2PL0 Copyright (c) Steve Scherf et al.
# Submitted via: audiograbber 1.83.01
#
DISCID=18107f13
DTITLE=Various Artist - Promo Only Country Radio 11 - 2006
DYEAR=2006
DGENRE=Country
TTITLE0=Trace Adkins - Ladies Love Country Boys
TTITLE1=The Wreckers (Michelle Branch and Jessica Harp) - My, Oh My
TTITLE2=Billy Currington - Good Directions
TTITLE3=Jake Owen - Startin' With Me
TTITLE4=Kellie Pickler - Red High Heels
TTITLE5=Little Big Town - Good As Gone
TTITLE6=Clay Walker - Fore She Was Mama
TTITLE7=Keith Anderson - Podunk
TTITLE8=Faith Hill - Stealing Kisses
TTITLE9=Rodney Atkins - Watching You
TTITLE10=Jimmy Wayne - That's All I'll Ever Need
TTITLE11=Ashley Monroe (with Ronnie Dunn) - I Don't Want To
TTITLE12=Steve Holy - Come On Rain
TTITLE13=Bob Seger - Wreck This Heart
TTITLE14=Lindsey Haun - Broken
TTITLE15=Kenny Rogers - The Last 10 Years (Superman)
TTITLE16=Tyler Dean - Built For Bluejeans
TTITLE17=Frank Carillo And The Bandoleros - Red Queen
TTITLE18=Ty Herndon - Right About Now
EXTD=
EXTT0=
EXTT1=
EXTT2=
EXTT3=
EXTT4=
EXTT5=
EXTT6=
EXTT7=
EXTT8=
EXTT9=
EXTT10=
EXTT11=
EXTT12=
EXTT13=
EXTT14=
EXTT15=
EXTT16=
EXTT17=
EXTT18=
PLAYORDER=
